<svg width="39" height="38" viewBox="0 0 39 38" fill="none" xmlns="http://www.w3.org/2000/svg">
<g clip-path="url(#clip0)" filter="url(#filter0_d)">
<path d="M34.5581 11.6679C34.3613 11.0591 33.8213 10.6266 33.1824 10.5691L24.5046 9.78111L21.0731 1.74942C20.8201 1.1608 20.2438 0.779785 19.6036 0.779785C18.9634 0.779785 18.3871 1.1608 18.1341 1.7508L14.7027 9.78111L6.0234 10.5691C5.38569 10.628 4.84708 11.0591 4.64911 11.6679C4.45115 12.2767 4.63397 12.9444 5.11638 13.3654L11.6758 19.118L9.7416 27.6383C9.60007 28.2648 9.84323 28.9124 10.363 29.2881C10.6424 29.49 10.9693 29.5927 11.2989 29.5927C11.5832 29.5927 11.8651 29.5161 12.1181 29.3647L19.6036 24.8909L27.0864 29.3647C27.6339 29.6941 28.3242 29.6641 28.8428 29.2881C29.3628 28.9112 29.6058 28.2634 29.4642 27.6383L27.53 19.118L34.0895 13.3665C34.5719 12.9444 34.7561 12.2778 34.5581 11.6679Z" fill="white"/>
</g>
<defs>
<filter id="filter0_d" x="0.570374" y="0.134644" width="38.066" height="38.066" filterUnits="userSpaceOnUse" color-interpolation-filters="sRGB">
<feFlood flood-opacity="0" result="BackgroundImageFix"/>
<feColorMatrix in="SourceAlpha" type="matrix" values="0 0 0 0 0 0 0 0 0 0 0 0 0 0 0 0 0 0 127 0"/>
<feOffset dy="4"/>
<feGaussianBlur stdDeviation="2"/>
<feColorMatrix type="matrix" values="0 0 0 0 0 0 0 0 0 0 0 0 0 0 0 0 0 0 0.25 0"/>
<feBlend mode="normal" in2="BackgroundImageFix" result="effect1_dropShadow"/>
<feBlend mode="normal" in="SourceGraphic" in2="effect1_dropShadow" result="shape"/>
</filter>
<clipPath id="clip0">
<rect width="30.066" height="30.066" fill="white" transform="translate(4.57037 0.134644)"/>
</clipPath>
</defs>
</svg>
